<svg width="400" height="400" viewBox="0 0 400 400" fill="none" xmlns="http://www.w3.org/2000/svg">
<path d="M220 218.572C220 225.436 225.597 231 232.5 231C239.404 231 245 225.435 245 218.571V185.429C245 178.564 239.404 173 232.5 173C225.597 173 220 178.564 220 185.428V218.572Z" fill="#F9CA64"/>
<path d="M159 218.572C159 225.436 164.821 231 172 231C179.18 231 185 225.435 185 218.571V185.429C185 178.564 179.18 173 172 173C164.821 173 159 178.564 159 185.428V218.572Z" fill="#F9CA64"/>
<path d="M202.5 279.583C159.929 279.583 125.417 245.072 125.417 202.5C125.417 170.991 144.323 143.897 171.41 131.944C168.678 127.402 166.31 122.82 164.324 118.221C160.004 108.214 157.494 98.128 157 88.2104C148.13 84.2043 139.587 82.4499 131.5 82.6544C123.514 82.8563 115.973 84.9688 109 88.7099C98.3611 94.4187 89.0474 103.92 81.5005 116.21C64.0005 144.71 50.0005 154.71 32.0005 154.71C32.0005 154.71 43.5005 168.582 60.0005 177.21C76.5005 185.839 86.5005 183.21 86.5005 183.21C86.5005 183.21 79.5005 207.71 91.5005 239.71C103.5 271.71 123 307.71 109 342.71C109 342.71 127.09 337.21 143 315.71C153.346 301.73 157.637 290.498 159.372 284.352C172.25 291.151 186.926 295 202.5 295C216.373 295 229.531 291.946 241.341 286.475C243.413 292.91 247.822 303.212 257.071 315.71C272.981 337.21 291.071 342.71 291.071 342.71C277.071 307.71 296.571 271.71 308.571 239.71C310.397 234.84 311.783 230.144 312.821 225.682C306.189 223.926 299.703 221.977 293.376 219.851C288.368 218.169 283.46 216.376 278.658 214.48C272.903 251.362 240.998 279.583 202.5 279.583Z" fill="#F9CA64"/>
<path d="M256 52.9999C222.539 40.9055 192.409 56.352 170.5 75.2157C168.063 77.3143 165.728 79.4552 163.5 81.6052C161.217 83.8094 159.048 86.0229 157 88.2104C157.494 98.128 160.004 108.214 164.324 118.221C166.31 122.82 168.678 127.402 171.41 131.944C190.977 164.484 229.164 194.936 278.658 214.48C283.46 216.376 288.368 218.169 293.376 219.851C299.725 221.985 306.235 223.94 312.891 225.701C322.785 228.318 333.003 230.506 343.5 232.21C343.5 232.21 328.5 213.21 332 171.71C335.5 130.21 328.47 116.995 313.5 103.71C313.5 103.71 321.637 96.7104 330 85.2104C338.364 73.7104 341.5 64.7106 341.5 64.7106C308.5 70.5001 297 67.8192 256 52.9999Z" fill="#F9CA64"/>
<path d="M170.501 69.2199C146.501 47.72 120.5 84.5001 103 66.5001C103 66.5001 103.001 78.7899 105.001 83C107.001 87.2101 109.001 88.71 109.001 88.71C109.001 88.71 120.001 85.75 131.501 82.65C143.001 79.8 157.001 82.21 157.001 82.21L163.501 75.61L170.501 69.2199Z" fill="#F9CA64"/>
</svg>
